<svg width="100%" height="100%" viewBox="0 0 47 46" version="1.1" xmlns="http://www.w3.org/2000/svg" xmlns:xlink="http://www.w3.org/1999/xlink" xml:space="preserve" style="fill-rule:evenodd;clip-rule:evenodd;stroke-linejoin:round;stroke-miterlimit:1.41421;"><g><g opacity="0.399994"><clipPath id="_clip1"><rect x="0" y="-0.001" width="46.002" height="46.002"/></clipPath><g clip-path="url(#_clip1)"><path d="M28.45,15.893l-3.458,0c-0.41,0 -0.867,0.539 -0.867,1.258l0,2.498l4.325,0l0,3.558l-4.325,0l0,10.69l-4.081,0l0,-10.69l-3.7,0l0,-3.558l3.7,0l0,-2.097c0,-3.003 2.084,-5.447 4.948,-5.447l3.458,0l0,3.788Zm-5.449,-15.893c-12.704,0 -23.001,10.297 -23.001,23.001c0,12.702 10.297,22.999 23.001,22.999c12.704,0 23.001,-10.297 23.001,-22.999c0,-12.704 -10.297,-23.001 -23.001,-23.001" style="fill:#06c;fill-rule:nonzero;"/></g></g></g></svg>
