<svg id="LOGO" xmlns="http://www.w3.org/2000/svg" viewBox="0 0 380 85"><defs><style>.cls-1{fill:#999;}</style></defs><title>reAction-logo</title><path class="cls-1" d="M17,81.85c0,.7-.23,1.16-.81,1.16H3.06c-.58,0-.81-.47-.81-1.16V26.48c0-.7.35-1.16.93-1.16h12c.58,0,.81.35.93,1.16L17,35.21c3.37-7.68,7.56-10.82,12.79-10.82a11.38,11.38,0,0,1,3,.35,1.06,1.06,0,0,1,.93,1.16V38.58c0,.58-.23.93-.58.81-.58,0-2.09-.23-4.19-.23-5.35,0-9.65,5.7-12,11.63Z"/><path class="cls-1" d="M81.45,56.61c0,.7-.35,1.16-.7,1.16H53.53v1c0,8.61,1.28,13.72,9,13.72,5.35,0,11.17-1,15-2.91.81-.35,1.28-.12,1.4.47l1.4,9.54c.12.81,0,1.16-.81,1.51A45,45,0,0,1,61.68,84.4c-16.4,0-22.8-7.56-22.8-30.24,0-24.54,6.75-30,21.87-30s20.7,5.93,20.7,25.94Zm-13.61-9c0-10.12-1.51-13.26-7.09-13.26s-7.33,2.44-7.44,13.26Z"/><path class="cls-1" d="M105.29,45.68c0,1-.58,2-1.51,2H90.28c-.93,0-1.4-.93-1.4-2V33.93c0-1,.47-2.09,1.4-2.09h13.49c.93,0,1.51,1,1.51,2.09Zm0,35.36c0,1.16-.58,2-1.51,2H90.28c-.93,0-1.4-.81-1.4-2V69.28c0-1,.47-2.09,1.4-2.09h13.49c.93,0,1.51,1,1.51,2.09Z"/><path d="M151.58,62.42h-19L128.2,82.31q-.18.7-.7.7H112.85c-.47,0-.58-.58-.35-1.28L131.57,2.64a1.15,1.15,0,0,1,1.16-1h19.07c.58,0,.7.35.81,1l19.19,79.09c.23.7.23,1.28-.35,1.28H156.58c-.47,0-.7-.23-.81-.93ZM134.94,49H149l-6.86-31.63Z"/><path d="M208.68,38.46c-.12.7-.58.93-1.51.58a23.77,23.77,0,0,0-9.07-1.74c-6.4,0-8.72,3.61-8.72,16.86s2.33,17.21,9,17.21a20.44,20.44,0,0,0,9.42-1.86c.7-.23,1-.35,1.16.47l1.63,10.35a1.19,1.19,0,0,1-.58,1.51,38,38,0,0,1-15,2.56c-13.38,0-20.35-6.86-20.35-30.59,0-23.49,6.86-29.66,21.28-29.66a37.25,37.25,0,0,1,13.49,2.33c.81.23.93.58.81,1.51Z"/><path d="M216.7,38.58c-.7,0-.93-.23-.93-1V26.37c0-.7.35-1,.93-1h6.51l1-14.77c0-.81.35-1.16,1-1.16h11.28a1,1,0,0,1,1.16,1.16V25.32h11.63c.58,0,.81.35.81,1V37.53c0,.7-.23,1-.81,1H237.75c-.12,7.33,0,17.33,0,25.7,0,5.23,1,6.51,5,6.51a28.47,28.47,0,0,0,6.63-.93c.7-.23,1,0,1.16.7L251.48,81c.12.81,0,1.28-.58,1.4a62.87,62.87,0,0,1-14.07,1.51c-11.75,0-13.84-4.88-13.84-15.58,0-8,0-20.82.12-29.77Z"/><path d="M274.27,14.51c0,.7-.35,1.16-.93,1.16H259.26c-.58,0-.81-.47-.81-1.16V3.34c0-.7.23-1.28.81-1.28h14.07c.58,0,.93.58.93,1.28Zm-.47,67.34c0,.7-.35,1.16-.81,1.16H259.85c-.47,0-.81-.47-.81-1.16V26.6c0-.7.35-1.28.81-1.28H273c.47,0,.81.58.81,1.28Z"/><path d="M304.16,84.4c-16.63,0-22.68-6.86-22.68-30.47s6-29.77,22.68-29.77,22.8,6,22.8,29.77S320.9,84.4,304.16,84.4Zm0-48.5c-6.28,0-7.91,2.44-7.91,18.26s1.63,18.61,7.91,18.61,8-2.91,8-18.61S310.55,35.91,304.16,35.91Z"/><path d="M349,81.73c0,.7-.12,1.28-.93,1.28H335.32c-.81,0-1-.47-1-1.16V26.48c0-.7.35-1.16,1-1.16h11.86c.7,0,.93.35,1,1.16l.81,7.09c3.49-4.19,9.89-9.3,17.1-9.3,8.14,0,11.86,5,11.86,15.47V82c0,.58-.23,1-.7,1H364.05c-.58,0-.81-.58-.81-1.4V45.33c0-5.23-1.74-6.51-4.54-6.51-3.72,0-7.21,3.61-9.65,7.21Z"/></svg>
