<svg width="100%" height="100%" viewBox="0 0 48 43" version="1.1" xmlns="http://www.w3.org/2000/svg" xmlns:xlink="http://www.w3.org/1999/xlink" xml:space="preserve" style="fill-rule:evenodd;clip-rule:evenodd;stroke-linejoin:round;stroke-miterlimit:1.41421;"><g><g opacity="0.399994"><clipPath id="_clip1"><rect x="0.001" y="0.001" width="47.864" height="42.121"/></clipPath><g clip-path="url(#_clip1)"><path d="M24.469,29.618c-4.735,-1.978 -6.249,-3.648 -6.249,-7.219c0,-2.146 1.446,-1.446 2.08,-5.375c0.264,-1.63 1.542,-0.026 1.785,-3.748c0,-1.483 -0.698,-1.85 -0.698,-1.85c0,0 0.355,-2.196 0.493,-3.883c0.173,-2.106 -1.059,-7.543 -7.628,-7.543c-6.57,0 -7.802,5.437 -7.631,7.543c0.138,1.687 0.493,3.883 0.493,3.883c0,0 -0.698,0.367 -0.698,1.85c0.245,3.722 1.522,2.118 1.787,3.748c0.632,3.929 2.08,3.229 2.08,5.375c0,3.571 -1.516,5.241 -6.248,7.219c-1.442,0.604 -4.035,1.538 -4.035,3.783l0,8.722l33.252,0l0,-6.54c0,-2.048 -4.037,-3.981 -8.783,-5.965m23.395,12.505c0,0 -0.091,-9.063 -0.648,-10.002c-0.823,-1.4 -2.74,-2.361 -6.302,-3.851c-3.55,-1.484 -4.687,-2.734 -4.687,-5.417c0,-1.607 1.085,-1.083 1.564,-4.028c0.195,-1.223 1.153,-0.02 1.336,-2.81c0,-1.113 -0.522,-1.39 -0.522,-1.39c0,0 0.265,-1.646 0.369,-2.912c0.129,-1.58 -0.796,-5.654 -5.722,-5.654c-4.926,0 -5.852,4.074 -5.722,5.654c0.104,1.266 0.369,2.912 0.369,2.912c0,0 -0.523,0.277 -0.523,1.39c0.184,2.79 1.139,1.587 1.339,2.81c0.474,2.945 1.559,2.421 1.559,4.028c0,1.823 -0.528,2.986 -1.98,4.009c7.756,3.883 8.795,4.675 8.795,8.145l0,7.116l10.775,0Z" style="fill:#06c;fill-rule:nonzero;"/></g></g></g></svg>
