<svg id="TAGLINE" xmlns="http://www.w3.org/2000/svg" viewBox="0 0 480 25"><title>tagline</title><path d="M8.49,2.91c3.51,0,5.15,1.94,5.15,4.6v.33a.92.92,0,0,1-1,1h-.9c-.66,0-1-.33-1-.93v-.3c0-1.21-.63-2-2.19-2s-2.19.79-2.19,2v9.75c0,1.23.58,2,2.14,2s2.24-.79,2.24-2V14.22H9.89a.91.91,0,0,1-1-1v-.55a.91.91,0,0,1,1-1H12.6a.93.93,0,0,1,1,1v8.19a.93.93,0,0,1-1,1h-.77a.91.91,0,0,1-1-1v-.52A3.34,3.34,0,0,1,7.67,22c-3,0-4.33-1.92-4.33-4.49v-10C3.34,4.85,5,2.91,8.49,2.91Z"/><path d="M25,21.86H18.29a.91.91,0,0,1-1-1V4.22a.93.93,0,0,1,1-1H25a.93.93,0,0,1,1,1v.52a.93.93,0,0,1-1,1H20.24v5.34h4a.93.93,0,0,1,1,1v.52a.93.93,0,0,1-1,1h-4v5.56H25a.91.91,0,0,1,1,1v.55A.91.91,0,0,1,25,21.86Z"/><path d="M37.1,4.22v.52a1,1,0,0,1-1,1H33.65V20.84a.91.91,0,0,1-1,1h-1a.91.91,0,0,1-1-1V5.78H28.23a.93.93,0,0,1-1-1V4.22a.93.93,0,0,1,1-1h7.83A1,1,0,0,1,37.1,4.22Z"/><path d="M43.86,20.84V4.22a.93.93,0,0,1,1-1h.93a1,1,0,0,1,1,1V20.84a.93.93,0,0,1-1,1h-.93A.91.91,0,0,1,43.86,20.84Z"/><path d="M53.09,7.7a42.2,42.2,0,0,1,.41,6.9v6.24a.91.91,0,0,1-1,1h-.88a.91.91,0,0,1-1-1V4.22a.93.93,0,0,1,1-1h1.2A1.17,1.17,0,0,1,54,4l2.85,7.23C58.46,15.34,59,17.28,59,17.28a36.64,36.64,0,0,1-.44-7V4.22a1,1,0,0,1,1-1h.88a.93.93,0,0,1,1,1V20.84a.91.91,0,0,1-1,1H59.33a1.12,1.12,0,0,1-1.15-.79l-2.9-7.31C53.83,10,53.09,7.7,53.09,7.7Z"/><path d="M65.3,20.84V4.22a.93.93,0,0,1,1-1h6.38a.93.93,0,0,1,1,1v.52a.93.93,0,0,1-1,1H68.28v5.89h3.89a.93.93,0,0,1,1,1v.52a.93.93,0,0,1-1,1H68.28v6.57a.93.93,0,0,1-1,1h-.93A.91.91,0,0,1,65.3,20.84Z"/><path d="M80.9,22.13c-3.51,0-5.15-1.92-5.15-4.6v-10c0-2.66,1.64-4.6,5.15-4.6s5.15,1.94,5.15,4.6v10C86.05,20.21,84.41,22.13,80.9,22.13Zm0-16.51c-1.59,0-2.19.79-2.19,2v9.75c0,1.23.6,2.05,2.19,2.05s2.19-.82,2.19-2.05V7.64C83.09,6.44,82.46,5.62,80.9,5.62Z"/><path d="M98.78,21.86H97.71a1.2,1.2,0,0,1-1.26-.93L94.4,14.82H92.51v6a.93.93,0,0,1-1,1h-.9a.91.91,0,0,1-1-1V4.22a.93.93,0,0,1,1-1h3.81c3.51,0,5.17,1.92,5.17,4.57v2.49a4.14,4.14,0,0,1-2.3,4l2.33,6.41C99.85,21.36,99.52,21.86,98.78,21.86Zm-6.27-9.64h1.86c1.59,0,2.22-.77,2.22-2V7.78c0-1.23-.63-2-2.22-2H92.51Z"/><path d="M105.71,8.93s.08,1.7.08,4.3v7.61a.93.93,0,0,1-1,1H104a.91.91,0,0,1-1-1V4.22a.93.93,0,0,1,1-1h1.2a1.12,1.12,0,0,1,1.15.82l2.16,6.16c.74,2.11,1.31,4,1.31,4s.55-1.81,1.31-4L113.29,4a1.14,1.14,0,0,1,1.15-.82h1.23a.93.93,0,0,1,1,1V20.84a.91.91,0,0,1-1,1h-.79a.91.91,0,0,1-1-1V13.23c0-2.55.05-4.27.05-4.27s-.58,1.81-1.45,4.24l-1,3a1.1,1.1,0,0,1-1.15.79h-1a1.11,1.11,0,0,1-1.18-.82l-1-2.93C106.25,10.6,105.71,8.93,105.71,8.93Z"/><path d="M128.19,21.86h-6.71a.91.91,0,0,1-1-1V4.22a.93.93,0,0,1,1-1h6.71a.93.93,0,0,1,1,1v.52a.93.93,0,0,1-1,1h-4.77v5.34h4a.93.93,0,0,1,1,1v.52a.93.93,0,0,1-1,1h-4v5.56h4.77a.91.91,0,0,1,1,1v.55A.91.91,0,0,1,128.19,21.86Z"/><path d="M142.28,7.75v9.53c0,2.68-1.64,4.57-5.15,4.57H133a.91.91,0,0,1-1-1V4.22a.93.93,0,0,1,1-1h4.13C140.64,3.18,142.28,5.1,142.28,7.75Zm-3,9.53V7.78c0-1.23-.63-2-2.19-2h-2.19v13.5h2.19C138.7,19.28,139.33,18.49,139.33,17.28Z"/><path d="M186.22,4.22v.52a1,1,0,0,1-1,1h-2.41V20.84a.91.91,0,0,1-1,1h-1a.91.91,0,0,1-1-1V5.78h-2.44a.93.93,0,0,1-1-1V4.22a.93.93,0,0,1,1-1h7.83A1,1,0,0,1,186.22,4.22Z"/><path d="M197,21.86h-.85A1,1,0,0,1,195,21l-.82-3.89H190L189.21,21a1,1,0,0,1-1.1.9h-.88a.83.83,0,0,1-.9-1.12L190,4.08a1.06,1.06,0,0,1,1.12-.9h2.05a1.06,1.06,0,0,1,1.12.9l3.67,16.65A.85.85,0,0,1,197,21.86Zm-3.34-7.31-.3-1.42A55.78,55.78,0,0,1,192.14,6a71.11,71.11,0,0,1-1.26,7.12l-.3,1.42Z"/><path d="M203.58,4.22V20.84a.93.93,0,0,1-1,1h-.93a.91.91,0,0,1-1-1V4.22a.93.93,0,0,1,1-1h.93A1,1,0,0,1,203.58,4.22Zm7.23.16-3.51,7.86,3.78,8.41c.3.71,0,1.2-.79,1.2h-1.21a1.21,1.21,0,0,1-1.2-.79L204.43,13a1.54,1.54,0,0,1,0-1.34L207.74,4a1.21,1.21,0,0,1,1.18-.79H210C210.78,3.18,211.11,3.67,210.81,4.38Z"/><path d="M221.54,21.86h-6.71a.91.91,0,0,1-1-1V4.22a.93.93,0,0,1,1-1h6.71a.93.93,0,0,1,1,1v.52a.93.93,0,0,1-1,1h-4.77v5.34h4a.93.93,0,0,1,1,1v.52a.93.93,0,0,1-1,1h-4v5.56h4.77a.91.91,0,0,1,1,1v.55A.91.91,0,0,1,221.54,21.86Z"/><path d="M239.72,21.86h-.85a1,1,0,0,1-1.12-.9l-.82-3.89h-4.19L231.91,21a1,1,0,0,1-1.1.9h-.88a.83.83,0,0,1-.9-1.12l3.64-16.65a1.06,1.06,0,0,1,1.12-.9h2.05a1.06,1.06,0,0,1,1.12.9l3.67,16.65A.85.85,0,0,1,239.72,21.86Zm-3.34-7.31-.3-1.42A55.78,55.78,0,0,1,234.84,6a71.11,71.11,0,0,1-1.26,7.12l-.3,1.42Z"/><path d="M253,16.76v.77c0,2.68-1.64,4.6-5.15,4.6s-5.15-1.92-5.15-4.6v-10c0-2.66,1.64-4.6,5.15-4.6S253,4.85,253,7.51v.82a.93.93,0,0,1-1,1h-.9a1,1,0,0,1-1-1V7.64c0-1.2-.63-2-2.19-2s-2.19.79-2.19,2v9.75c0,1.23.6,2.05,2.19,2.05s2.19-.82,2.19-2.05v-.63a1,1,0,0,1,1-1h.9A.93.93,0,0,1,253,16.76Z"/><path d="M264.66,4.22v.52a1,1,0,0,1-1,1h-2.41V20.84a.91.91,0,0,1-1,1h-1a.91.91,0,0,1-1-1V5.78h-2.44a.93.93,0,0,1-1-1V4.22a.93.93,0,0,1,1-1h7.83A1,1,0,0,1,264.66,4.22Z"/><path d="M266.84,20.84V4.22a.93.93,0,0,1,1-1h.93a1,1,0,0,1,1,1V20.84a.93.93,0,0,1-1,1h-.93A.91.91,0,0,1,266.84,20.84Z"/><path d="M278.45,22.13c-3.51,0-5.15-1.92-5.15-4.6v-10c0-2.66,1.64-4.6,5.15-4.6s5.15,1.94,5.15,4.6v10C283.6,20.21,282,22.13,278.45,22.13Zm0-16.51c-1.59,0-2.19.79-2.19,2v9.75c0,1.23.6,2.05,2.19,2.05s2.19-.82,2.19-2.05V7.64C280.65,6.44,280,5.62,278.45,5.62Z"/><path d="M289.6,7.7a42.2,42.2,0,0,1,.41,6.9v6.24a.91.91,0,0,1-1,1h-.88a.91.91,0,0,1-1-1V4.22a.93.93,0,0,1,1-1h1.2A1.17,1.17,0,0,1,290.5,4l2.85,7.23c1.62,4.11,2.19,6.05,2.19,6.05a36.64,36.64,0,0,1-.44-7V4.22a1,1,0,0,1,1-1H297a.93.93,0,0,1,1,1V20.84a.91.91,0,0,1-1,1h-1.18a1.12,1.12,0,0,1-1.15-.79l-2.9-7.31C290.33,10,289.6,7.7,289.6,7.7Z"/><path d="M333.4,8.19V7.48c0-2.66,1.53-4.57,5-4.57s5.07,1.92,5.07,4.57v.25a.93.93,0,0,1-1,1h-.93a.9.9,0,0,1-1-1V7.56c0-1.2-.52-2-2.08-2s-2.05.77-2.05,2V8a2.76,2.76,0,0,0,1.67,2.55l3,2a4.77,4.77,0,0,1,2.52,4.3v.74c0,2.68-1.7,4.55-5.17,4.55s-5.15-1.89-5.15-4.57v-.33a.91.91,0,0,1,1-1h.93a.91.91,0,0,1,1,1v.27c0,1.2.6,2,2.16,2s2.19-.79,2.19-2v-.38a2.64,2.64,0,0,0-1.56-2.46l-3-2A5.22,5.22,0,0,1,333.4,8.19Z"/><path d="M354.78,4.22v.52a1,1,0,0,1-1,1h-2.41V20.84a.91.91,0,0,1-1,1h-1a.91.91,0,0,1-1-1V5.78h-2.44a.93.93,0,0,1-1-1V4.22a.93.93,0,0,1,1-1h7.83A1,1,0,0,1,354.78,4.22Z"/><path d="M365.57,21.86h-.85a1,1,0,0,1-1.12-.9l-.82-3.89h-4.19L357.76,21a1,1,0,0,1-1.1.9h-.88a.83.83,0,0,1-.9-1.12l3.64-16.65a1.06,1.06,0,0,1,1.12-.9h2.05a1.06,1.06,0,0,1,1.12.9l3.67,16.65A.85.85,0,0,1,365.57,21.86Zm-3.34-7.31-.3-1.42A55.78,55.78,0,0,1,360.69,6a71.11,71.11,0,0,1-1.26,7.12l-.3,1.42Z"/><path d="M370.36,20.84v-5l-4-11.45c-.25-.71.08-1.18.82-1.18h.93a1.12,1.12,0,0,1,1.15.85l1.42,4.33a25,25,0,0,1,1.2,4.33,32.48,32.48,0,0,1,1.23-4.33L374.52,4a1.12,1.12,0,0,1,1.15-.85h.88a.8.8,0,0,1,.82,1.18l-4,11.45v5a.91.91,0,0,1-1,1h-1A.91.91,0,0,1,370.36,20.84Z"/><path d="M384.1,20.84V4.22a.93.93,0,0,1,1-1H386a1,1,0,0,1,1,1V20.84a.93.93,0,0,1-1,1h-.93A.91.91,0,0,1,384.1,20.84Z"/><path d="M393.33,7.7a42.2,42.2,0,0,1,.41,6.9v6.24a.91.91,0,0,1-1,1h-.88a.91.91,0,0,1-1-1V4.22a.93.93,0,0,1,1-1h1.2a1.17,1.17,0,0,1,1.18.82l2.85,7.23c1.62,4.11,2.19,6.05,2.19,6.05a36.64,36.64,0,0,1-.44-7V4.22a1,1,0,0,1,1-1h.88a.93.93,0,0,1,1,1V20.84a.91.91,0,0,1-1,1h-1.18a1.12,1.12,0,0,1-1.15-.79l-2.9-7.31C394.07,10,393.33,7.7,393.33,7.7Z"/><path d="M408,21,404.25,4.3a.83.83,0,0,1,.9-1.12H406a1,1,0,0,1,1.12.93l1.7,7.8A61.59,61.59,0,0,1,410,18.54a53.72,53.72,0,0,1,1.18-6.63l1.7-7.8A1.06,1.06,0,0,1,414,3.18h.88a.82.82,0,0,1,.9,1.12L412,21a1.05,1.05,0,0,1-1.12.9h-1.75A1.05,1.05,0,0,1,408,21Z"/><path d="M423.14,22.13c-3.51,0-5.15-1.92-5.15-4.6v-10c0-2.66,1.64-4.6,5.15-4.6s5.15,1.94,5.15,4.6v10C428.29,20.21,426.65,22.13,423.14,22.13Zm0-16.51c-1.59,0-2.19.79-2.19,2v9.75c0,1.23.6,2.05,2.19,2.05s2.19-.82,2.19-2.05V7.64C425.33,6.44,424.7,5.62,423.14,5.62Z"/><path d="M439,21.86H432.8a.91.91,0,0,1-1-1V4.22a.93.93,0,0,1,1-1h.93a1,1,0,0,1,1,1V19.28H439a.93.93,0,0,1,1,1v.55A.93.93,0,0,1,439,21.86Z"/><path d="M443.51,21,439.73,4.3a.83.83,0,0,1,.9-1.12h.88a1,1,0,0,1,1.12.93l1.7,7.8a61.59,61.59,0,0,1,1.18,6.63,53.72,53.72,0,0,1,1.18-6.63l1.7-7.8a1.06,1.06,0,0,1,1.12-.93h.88a.82.82,0,0,1,.9,1.12L447.51,21a1.05,1.05,0,0,1-1.12.9h-1.75A1.05,1.05,0,0,1,443.51,21Z"/><path d="M461.74,21.86H455a.91.91,0,0,1-1-1V4.22a.93.93,0,0,1,1-1h6.71a.93.93,0,0,1,1,1v.52a.93.93,0,0,1-1,1H457v5.34h4a.93.93,0,0,1,1,1v.52a.93.93,0,0,1-1,1h-4v5.56h4.77a.91.91,0,0,1,1,1v.55A.91.91,0,0,1,461.74,21.86Z"/><path d="M475.84,7.75v9.53c0,2.68-1.64,4.57-5.15,4.57h-4.13a.91.91,0,0,1-1-1V4.22a.93.93,0,0,1,1-1h4.13C474.2,3.18,475.84,5.1,475.84,7.75Zm-3,9.53V7.78c0-1.23-.63-2-2.19-2H468.5v13.5h2.19C472.25,19.28,472.89,18.49,472.89,17.28Z"/><path d="M165.1,11.12l-9.5-5a.59.59,0,0,0-.87.52V8.26a.59.59,0,0,0,.31.52l7.06,3.75-7.06,3.75a.59.59,0,0,0-.31.52v1.66a.59.59,0,0,0,.87.52l9.5-5a.59.59,0,0,0,.31-.52V11.64A.59.59,0,0,0,165.1,11.12Z"/><path d="M321.24,11.12l-9.5-5a.59.59,0,0,0-.87.52V8.26a.59.59,0,0,0,.31.52l7.06,3.75-7.06,3.75a.59.59,0,0,0-.31.52v1.66a.59.59,0,0,0,.87.52l9.5-5a.59.59,0,0,0,.31-.52V11.64A.59.59,0,0,0,321.24,11.12Z"/></svg>
